<svg xmlns="http://www.w3.org/2000/svg" xmlns:xlink="http://www.w3.org/1999/xlink"><defs>
    <style>
      .cls-1 {
        fill: #171717;
        fill-rule: evenodd;
      }
    </style>
  
    <style>
      .cls-1 {
        fill: #171717;
        fill-rule: evenodd;
      }
    </style>
  
    <style>
      .cls-1 {
        fill-rule: evenodd;
      }
    </style>
  
    <style>
      .cls-1 {
        fill: #171717;
        fill-rule: evenodd;
      }
    </style>
  
    <style>
      .cls-1 {
        fill: #fff;
        fill-opacity: 0;
        stroke: #d9d9d9;
        stroke-linejoin: round;
        stroke-width: 2px;
        fill-rule: evenodd;
      }
    </style>
  
    <style>
      .cls-1 {
        fill: #fff;
        fill-rule: evenodd;
      }
    </style>
  
    <style>
      .cls-1 {
        fill: #fff;
        fill-opacity: 0;
        stroke: #171717;
        stroke-linejoin: round;
        stroke-width: 2px;
        fill-rule: evenodd;
      }
    </style>
  
    <style>
      .cls-1 {
        fill-rule: evenodd;
      }
    </style>
  
    <style>
      .cls-1 {
        fill: #171717;
        fill-rule: evenodd;
      }
    </style>
  </defs><symbol id="icon-fb" viewBox="0 0 10.156 17.906">
  
  <path id="fb" class="cls-1" d="M31.781,378l-2.438,0a4.177,4.177,0,0,0-4.509,4.4v2.031H22.383A0.374,0.374,0,0,0,22,384.8v2.943a0.374,0.374,0,0,0,.383.365h2.451v7.425a0.375,0.375,0,0,0,.383.365h3.2a0.375,0.375,0,0,0,.383-0.365v-7.425h2.866a0.374,0.374,0,0,0,.383-0.365V384.8a0.357,0.357,0,0,0-.112-0.258,0.392,0.392,0,0,0-.271-0.107H28.8v-1.722c0-.827.207-1.248,1.339-1.248h1.643a0.374,0.374,0,0,0,.383-0.365v-2.733A0.374,0.374,0,0,0,31.781,378Z" transform="translate(-22 -378)"/>
</symbol><symbol id="icon-google" viewBox="0 0 17.781 14.344">
  
  <path id="g_" data-name="g+" class="cls-1" d="M37.862,508.28H31.491v2.227h3.887a4.582,4.582,0,0,1-4.342,3.341,4.778,4.778,0,0,1,0-9.546,4.433,4.433,0,0,1,3.235,1.417l1.541-1.758a6.648,6.648,0,0,0-4.776-2.045,7.162,7.162,0,1,0,6.826,8.591V508.28h0Zm4.137,0H40.7v-1.367H39.579v1.367h-1.3v1.172h1.3v1.366H40.7v-1.366H42v-1.172Z" transform="translate(-24.219 -501.906)"/>
</symbol><symbol id="icon-heart" viewBox="0 0 10.84 9.438">
  
  <path id="Forma_1" data-name="Forma 1" class="cls-1" d="M1034.84,606.88a3.069,3.069,0,0,1-1.02,2.293h0l-3.38,3.369a1.109,1.109,0,0,1-2.04,0l-3.39-3.369h0.01a3.069,3.069,0,0,1-1.02-2.293,86.9,86.9,0,0,0,7.73-3.1A3.1,3.1,0,0,1,1034.84,606.88Z" transform="translate(-1024 -603.781)"/>
</symbol><symbol id="icon-insta" viewBox="0 0 18.75 19.187">
  
  <path id="insta" class="cls-1" d="M35.575,560.822h-8.4A5.24,5.24,0,0,0,22,566.114v8.593A5.24,5.24,0,0,0,27.174,580h8.4a5.24,5.24,0,0,0,5.174-5.292v-8.593A5.24,5.24,0,0,0,35.575,560.822Zm3.511,13.885a3.556,3.556,0,0,1-3.511,3.591h-8.4a3.556,3.556,0,0,1-3.511-3.591v-8.593a3.556,3.556,0,0,1,3.511-3.591h8.4a3.556,3.556,0,0,1,3.511,3.591v8.593h0Zm-7.711-9.237a4.942,4.942,0,1,0,4.831,4.941A4.892,4.892,0,0,0,31.374,565.47Zm0,8.181a3.241,3.241,0,1,1,3.168-3.24A3.209,3.209,0,0,1,31.374,573.651Zm5.034-9.624a1.209,1.209,0,0,0-.862.365,1.266,1.266,0,0,0,0,1.765,1.2,1.2,0,0,0,1.725,0,1.269,1.269,0,0,0,0-1.765A1.209,1.209,0,0,0,36.408,564.027Z" transform="translate(-22 -560.813)"/>
</symbol><symbol id="icon-left-arrow" viewBox="0 0 13.875 18.32">
  
  <path id="arrow_Kopie_copy" data-name="arrow Kopie copy" class="cls-1" d="M310.1,4287.33l-11.887,8.17,11.887,8.16" transform="translate(-297.219 -4286.34)"/>
</symbol><symbol id="icon-next" viewBox="0 0 6.5 10.875">
  
  <path id="Form_1" data-name="Form 1" class="cls-1" d="M973.892,613.94l5.294-5.44-5.294-5.441-1.211,1.227,4.1,4.214-4.1,4.213Z" transform="translate(-972.688 -603.063)"/>
</symbol><symbol id="icon-right-arrow" viewBox="0 0 13.87 18.32">
  
  <path id="arrow_copy" data-name="arrow copy" class="cls-1" d="M1584.9,4294.34l11.88,8.16-11.88,8.16" transform="translate(-1583.91 -4293.34)"/>
</symbol><symbol id="icon-share" viewBox="0 0 11.56 11.625">
  
  <path id="Forma_1" data-name="Forma 1" class="cls-1" d="M1085.61,609.172a1.937,1.937,0,0,0-1.43.63l-4.22-2.107a1.509,1.509,0,0,0,.03-0.3,1.438,1.438,0,0,0-.03-0.294l4.21-2.084a1.952,1.952,0,0,0,1.44.635,2.021,2.021,0,1,0-1.98-2.021,2.845,2.845,0,0,0,.02.295l-4.21,2.083a1.947,1.947,0,0,0-1.43-.635,2.021,2.021,0,0,0,0,4.042,1.952,1.952,0,0,0,1.43-.629l4.21,2.106a2.983,2.983,0,0,0-.02.3A1.98,1.98,0,1,0,1085.61,609.172Z" transform="translate(-1076.03 -601.594)"/>
</symbol><symbol id="icon-tw" viewBox="0 0 16.938 14.344">
  
  <path id="tw" class="cls-1" d="M38.887,440.654a6.815,6.815,0,0,1-2.209.877,3.4,3.4,0,0,0-2.536-1.142A3.548,3.548,0,0,0,30.666,444a3.777,3.777,0,0,0,.09.824,9.749,9.749,0,0,1-7.164-3.778,3.7,3.7,0,0,0-.47,1.817,3.653,3.653,0,0,0,1.546,3.009,3.352,3.352,0,0,1-1.574-.454v0.046a3.585,3.585,0,0,0,2.788,3.545,3.348,3.348,0,0,1-1.57.062,3.5,3.5,0,0,0,3.246,2.511,6.807,6.807,0,0,1-4.316,1.547,6.879,6.879,0,0,1-.829-0.05,9.561,9.561,0,0,0,5.328,1.625c6.393,0,9.888-5.509,9.888-10.287l-0.011-.469a7.156,7.156,0,0,0,1.737-1.869,6.744,6.744,0,0,1-2,.57A3.617,3.617,0,0,0,38.887,440.654Z" transform="translate(-22.406 -440.375)"/>
</symbol></svg>